<?xml version="1.0" encoding="utf-8"?>
<!-- Generator: Adobe Illustrator 24.1.0, SVG Export Plug-In . SVG Version: 6.00 Build 0)  -->
<svg version="1.1" id="Layer_1" xmlns="http://www.w3.org/2000/svg" xmlns:xlink="http://www.w3.org/1999/xlink" x="0px" y="0px"
	 width="414px" height="180px" viewBox="0 0 414 180" style="enable-background:new 0 0 414 180;" xml:space="preserve">
<style type="text/css">
	.st0{fill:#FFFFFF;}
	.st1{fill:#0076CE;}
	.st2{fill:#808080;}
</style>
<rect class="st0" width="414" height="180"/>
<g>
	<path class="st1" d="M318.9,83.4v13.1h-42.6V30.4h15v52.9L318.9,83.4L318.9,83.4z M121.9,96.6c15.3,0,28.3-10.5,31.9-24.7
		l37.4,29.2l37.4-29.2v24.7h42.6V83.4h-27.6v-53h-15v24.7l-35.8,28l-8-6.3L202,63.4l18.7-14.6l-10.6-8.3l-35.8,28l-8-6.3l35.8-28
		L191.2,26l-37.4,29.2c-3.7-14.2-16.6-24.7-31.9-24.7H95.1v66L121.9,96.6L121.9,96.6z M110.1,83.4V43.6h11.7
		c9.9,0,18.1,8.9,18.1,19.9s-8.1,19.9-18.1,19.9H110.1z"/>
	<path class="st2" d="M318.9,139.1c0-4-2.2-5.7-6.6-6.6c-4.4-0.9-7-1.3-7-4.4c0-2.2,1.7-3.5,4.9-3.5c4,0,5.3,1.7,5.3,4l0.4,0.4h1.7
		l0.4-0.4c0-4.4-3.5-6.1-7.9-6.1c-4.9,0-7.4,2.6-7.4,5.7c0,3.5,2.6,5.3,7,6.1c4.4,0.9,6.6,1.3,6.6,4.9c0,2.2-1.3,4-5.7,4
		c-4,0-5.7-2.2-5.7-4.9l-0.4-0.4h-1.7l-0.4,0.4c0,4,3.1,7,8.3,7C316.2,145.3,318.9,142.7,318.9,139.1 M300,134.8l0.4-0.4V133
		c0-6.1-3.5-10.6-9.7-10.6c-6.1,0-9.7,4.4-9.7,10.6v0.9c0,6.1,3.1,11.4,10.1,11.4c6.1,0,8.3-4,8.8-6.6l-0.4-0.4h-1.7l-0.4,0.4
		c-0.9,2.6-2.6,4.4-6.1,4.4c-5.7,0-7.4-5.3-7.4-7.9l0.4-0.4L300,134.8L300,134.8z M297.4,132.5h-13.2l-0.4-0.4c0-3.1,1.7-7.4,7-7.4
		s7,4.4,7,7.4L297.4,132.5z M278,144.4v-21l-0.4-0.4h-1.7l-0.4,0.4v21l0.4,0.4h1.7L278,144.4z M278,118.9v-2.6l-0.4-0.4h-1.7
		l-0.4,0.4v2.6l0.4,0.4h1.7L278,118.9z M261.4,143.1c-4.4,0-7-3.1-7-9.2c0-6.1,2.6-9.2,7-9.2s7,3.1,7,9.2
		C268.4,140,265.8,143.1,261.4,143.1 M268.4,141.8c0,5.7-1.3,10.1-6.6,10.1c-4,0-5.3-1.7-5.7-4l-0.4-0.4H254l-0.4,0.4
		c0.4,3.5,3.1,6.1,8.3,6.1c5.7,0,9.2-3.5,9.2-12.3v-18.4l-0.4-0.4h-1.3l-0.4,0.4l-0.4,2.6h-0.4c-0.9-1.7-3.1-3.5-7-3.5
		c-6.1,0-9.2,4.9-9.2,11.4c0,6.6,3.1,11.4,9.2,11.4c4,0,6.1-1.7,7-3.5h0.3L268.4,141.8z M239.9,124.7c4.4,0,7.4,3.5,7.4,9.2
		s-3.1,9.2-7.4,9.2s-7.4-3.5-7.4-9.2C232.4,128.2,235.5,124.7,239.9,124.7 M239.9,145.3c5.7,0,10.1-4,10.1-11.4s-4.4-11.4-10.1-11.4
		c-5.7,0-10.1,4-10.1,11.4C229.8,141.4,234.2,145.3,239.9,145.3 M226.7,144.4v-29.9l-0.4-0.4h-1.7l-0.4,0.4v29.9l0.4,0.4h1.7
		L226.7,144.4z M211,124.7c4.4,0,7.4,3.5,7.4,9.2s-3.1,9.2-7.4,9.2s-7.4-3.5-7.4-9.2C203.5,128.2,206.6,124.7,211,124.7 M211,145.3
		c5.7,0,10.1-4,10.1-11.4s-4.4-11.4-10.1-11.4c-5.7,0-10.1,4-10.1,11.4C200.8,141.4,205.3,145.3,211,145.3 M198.2,144.4v-13.2
		c0-5.7-3.1-8.8-7.9-8.8c-3.1,0-5.7,1.3-7,3.5h-0.4l-0.4-2.6L182,123h-1.3l-0.4,0.4v21l0.4,0.4h1.7l0.4-0.4v-11.9
		c0-4.9,2.2-7.9,7-7.9c3.5,0,5.7,2.2,5.7,6.6v13.2l0.4,0.4h1.7L198.2,144.4z M175.8,144.4v-13.2c0-5.7-3.1-8.8-7.9-8.8
		c-3.1,0-5.7,1.3-7,3.5h-0.4v-11.4l-0.4-0.4h-1.7l-0.4,0.4v29.9l0.4,0.4h1.7l0.4-0.4v-11.9c0-4.9,2.2-7.9,7-7.9
		c3.5,0,5.7,2.2,5.7,6.6v13.2l0.4,0.4h1.7L175.8,144.4z M138.1,133.9c0-6.1,3.1-9.2,7.4-9.2s6.1,2.6,6.6,5.3l0.4,0.4h1.7l0.4-0.4
		c-0.4-4.4-4-7.4-9.2-7.4c-5.7,0-10.1,3.5-10.1,11.4s4.4,11.4,10.1,11.4c5.3,0,8.8-3.1,9.2-7.4l-0.4-0.4h-1.7l-0.4,0.4
		c-0.4,2.6-2.2,5.3-6.6,5.3S138.1,140,138.1,133.9 M133.2,134.8l0.4-0.4V133c0-6.1-3.5-10.6-9.7-10.6c-6.1,0-9.7,4.4-9.7,10.6v0.9
		c0,6.1,3.1,11.4,10.1,11.4c6.1,0,8.3-4,8.8-6.6l-0.4-0.4H131l-0.4,0.4c-0.9,2.6-2.6,4.4-6.1,4.4c-5.7,0-7.4-5.3-7.4-7.9l0.4-0.4
		L133.2,134.8L133.2,134.8z M130.6,132.5h-13.2l-0.4-0.4c0-3.1,1.7-7.4,7-7.4c5.3,0,7,4.4,7,7.4L130.6,132.5z M118.8,115.9v-1.3
		l-0.4-0.4H95.5l-0.4,0.4v1.3l0.4,0.4h9.7l0.4,0.4v27.6l0.4,0.4h1.7l0.4-0.4v-27.6l0.4-0.4h9.7L118.8,115.9z"/>
</g>
</svg>
