<?xml version="1.0" encoding="utf-8"?>
<!-- Generator: Adobe Illustrator 24.1.0, SVG Export Plug-In . SVG Version: 6.00 Build 0)  -->
<svg version="1.1" id="Layer_1" xmlns="http://www.w3.org/2000/svg" xmlns:xlink="http://www.w3.org/1999/xlink" x="0px" y="0px"
	 width="414px" height="180px" viewBox="0 0 414 180" style="enable-background:new 0 0 414 180;" xml:space="preserve">
<style type="text/css">
	.st0{fill:#010101;}
	.st1{fill:#80BC00;}
</style>
<g>
	<path id="Reg_1_" class="st0" d="M371.9,107.4v-0.9h0.7c0.2,0,0.9,0,0.9,0.4c0,0.4-0.2,0.4-0.7,0.4H371.9 M371.9,108.1h0.4l0.9,1.5
		h1.1l-1.1-1.8c0.4,0,0.9-0.2,0.9-1.1c0-0.9-0.7-1.1-1.8-1.1h-1.5v4h0.9L371.9,108.1 M376.3,107.6c0-2.2-1.8-3.5-3.7-3.5
		c-2,0-3.7,1.3-3.7,3.5c0,2.2,1.8,3.7,3.7,3.7S376.3,110.1,376.3,107.6 M375.2,107.6c0,1.8-1.3,2.9-2.6,2.9l0,0
		c-1.5,0-2.6-1.1-2.6-2.9s1.1-2.9,2.6-2.9C373.9,105,375.2,106.1,375.2,107.6z"/>
	<path id="NVIDIA_4_" class="st0" d="M237.6,68.8v41.2h11.7V68.8H237.6z M145.7,68.6v41.4h11.7V78.5h9c3.1,0,5.1,0.7,6.6,2.2
		c1.8,2,2.6,5.1,2.6,11v18.1h11.5V87.1c0-16.3-10.4-18.5-20.5-18.5C166.7,68.6,145.7,68.6,145.7,68.6z M256.4,68.8v41.2h19
		c10.1,0,13.4-1.8,17-5.5c2.4-2.6,4.2-8.4,4.2-14.8c0-5.7-1.3-11-3.7-14.1c-4.4-5.7-10.6-6.8-19.8-6.8L256.4,68.8z M267.8,77.7h5.1
		c7.3,0,11.9,3.3,11.9,11.7s-4.6,11.7-11.9,11.7h-5.1V77.7z M220.7,68.8l-9.7,32.6l-9.3-32.6h-12.6l13.2,41.2h16.8l13.4-41.2
		C232.6,68.8,220.7,68.8,220.7,68.8z M301.8,110.1h11.7V68.8h-11.7V110.1z M334.4,68.8l-16.3,41.2h11.5l2.6-7.3h19.2l2.4,7.3h12.6
		l-16.3-41.2L334.4,68.8z M341.9,76.3l7.1,19.4h-14.3L341.9,76.3z"/>
	<path id="Eye_Mark_1_" class="st1" d="M72.8,77.4v-5.7c0.4,0,1.1,0,1.8,0c15.4-0.4,25.6,13.2,25.6,13.2s-10.8,15.2-22.7,15.2
		c-1.8,0-3.1-0.2-4.6-0.7v-17c6,0.7,7.3,3.3,10.8,9.5l7.9-6.8c0,0-6-7.7-15.6-7.7C74.7,77.2,73.6,77.4,72.8,77.4 M72.8,58.9v8.4
		c0.7,0,1.1,0,1.8,0c21.4-0.7,35.3,17.6,35.3,17.6s-16.1,19.4-32.6,19.4c-1.5,0-2.9-0.2-4.4-0.4v5.3c1.1,0.2,2.4,0.2,3.5,0.2
		c15.4,0,26.7-7.9,37.7-17.4c1.8,1.5,9.3,4.8,10.8,6.4C114.4,107,90.4,114,76.7,114c-1.3,0-2.6,0-3.7-0.2v7.3h59.1V58.9H72.8z
		 M72.8,99.5v4.4c-14.3-2.6-18.3-17.4-18.3-17.4s6.8-7.7,18.3-8.8v4.8l0,0c-6-0.7-10.8,4.8-10.8,4.8S64.6,96.6,72.8,99.5 M47.2,85.6
		c0,0,8.6-12.6,25.6-13.9v-4.6c-18.7,1.5-35,17.4-35,17.4s9.3,26.7,35,29.1v-4.8C53.6,106.5,47.2,85.6,47.2,85.6z"/>
</g>
</svg>
