<?xml version="1.0" encoding="utf-8"?>
<!-- Generator: Adobe Illustrator 24.1.0, SVG Export Plug-In . SVG Version: 6.00 Build 0)  -->
<svg version="1.1" id="Layer_1" xmlns="http://www.w3.org/2000/svg" xmlns:xlink="http://www.w3.org/1999/xlink" x="0px" y="0px"
	 width="581.5px" height="76.1px" viewBox="0 0 581.5 76.1" style="enable-background:new 0 0 581.5 76.1;" xml:space="preserve">
<style type="text/css">
	.st0{fill-rule:evenodd;clip-rule:evenodd;fill:#295496;}
	.st1{fill:#48D0C2;}
	.st2{fill:none;stroke:#FFFFFF;stroke-width:3.6;stroke-linecap:square;stroke-miterlimit:10;}
	.st3{fill:none;stroke:#FFFFFF;stroke-width:3.6;stroke-linecap:round;stroke-miterlimit:10;}
	.st4{fill:#FFFFFF;}
	.st5{fill:none;stroke:#FFFFFF;stroke-miterlimit:10;}
	.st6{fill-rule:evenodd;clip-rule:evenodd;fill:#48D0C2;}
	.st7{fill:#295496;}
	.st8{fill-rule:evenodd;clip-rule:evenodd;fill:#FFFFFF;}
</style>
<g id="Layer_2_1_">
</g>
<g id="Layer_3">
</g>
<path class="st0" d="M568.3,65H30.4c-6.6,0-12-5.4-12-12V22.3c0-6.6,5.4-12,12-12h537.9c6.6,0,12,5.4,12,12V53
	C580.3,59.6,574.9,65,568.3,65z"/>
<path class="st1" d="M43.2,64.5c0-12.7,8.6-25.1,14.4-25.1S73,46.2,73,64.9"/>
<circle class="st1" cx="57.7" cy="29.3" r="9.7"/>
<path class="st1" d="M71.2,64.8c0-12.7,8.6-25.4,14.3-25.4s15.4,6.8,15.4,25.5"/>
<circle class="st1" cx="85.6" cy="29.3" r="9.7"/>
<path class="st2" d="M47.6,63.6c0-18,9.3-27.3,15-27.3S78,44.1,78,62.8"/>
<circle class="st3" cx="62.8" cy="26.1" r="9.7"/>
<path class="st2" d="M77.1,50.4c1.6-7,6.8-14.1,12.5-14.1S105,44.1,105,62.8"/>
<circle class="st3" cx="89.8" cy="26.1" r="9.7"/>
<g>
	<path class="st4" d="M126.2,32.7v6.8c0,1-0.3,1.8-0.8,2.4c-0.6,0.6-1.3,0.8-2.3,0.8c-1.1,0-1.9-0.3-2.6-0.9c-0.6-0.6-1-1.5-1-2.6
		h2.4c0,0.9,0.3,1.4,1,1.4c0.6,0,0.9-0.4,0.9-1.1v-6.8C123.8,32.7,126.2,32.7,126.2,32.7z"/>
	<path class="st4" d="M133.5,35.2c0.6,0.3,1.1,0.8,1.4,1.4c0.4,0.6,0.5,1.3,0.5,2.1s-0.2,1.5-0.5,2.1c-0.4,0.6-0.8,1.1-1.4,1.4
		s-1.3,0.5-2.1,0.5s-1.5-0.2-2.1-0.5s-1.1-0.8-1.4-1.4c-0.3-0.6-0.5-1.3-0.5-2.1s0.2-1.5,0.5-2.1c0.4-0.6,0.8-1.1,1.4-1.4
		c0.6-0.3,1.3-0.5,2.1-0.5S132.9,34.9,133.5,35.2z M130.2,37.3c-0.3,0.3-0.5,0.8-0.5,1.4c0,0.6,0.2,1.1,0.5,1.4
		c0.3,0.3,0.7,0.5,1.2,0.5s0.8-0.2,1.1-0.5s0.5-0.8,0.5-1.4c0-0.6-0.2-1.1-0.5-1.4c-0.3-0.3-0.7-0.5-1.1-0.5
		C130.9,36.8,130.6,36.9,130.2,37.3z"/>
	<path class="st4" d="M136.9,31.7c0.3-0.2,0.6-0.4,1-0.4s0.8,0.1,1,0.4c0.3,0.2,0.4,0.5,0.4,0.9s-0.1,0.7-0.4,0.9
		c-0.3,0.2-0.6,0.4-1,0.4s-0.8-0.1-1-0.4c-0.3-0.2-0.4-0.5-0.4-0.9S136.6,31.9,136.9,31.7z M139.1,34.8v7.8h-2.4v-7.8H139.1z"/>
	<path class="st4" d="M147.8,35.6c0.5,0.6,0.8,1.4,0.8,2.5v4.5h-2.4v-4.3c0-0.5-0.1-0.9-0.4-1.2s-0.6-0.4-1.1-0.4s-0.9,0.2-1.2,0.5
		s-0.4,0.7-0.4,1.3v4.1h-2.4v-7.8h2.4v1.4c0.2-0.5,0.6-0.8,1-1.1s1-0.4,1.6-0.4C146.6,34.7,147.3,35,147.8,35.6z"/>
	<path class="st4" d="M157.4,40.6v2.1h-1.1c-0.9,0-1.6-0.2-2.1-0.7s-0.8-1.2-0.8-2.2v-2.9h-1v-2h1V33h2.4v1.9h1.6v2h-1.6v2.9
		c0,0.3,0.1,0.5,0.2,0.6c0.1,0.1,0.3,0.2,0.6,0.2C156.6,40.6,157.4,40.6,157.4,40.6z"/>
	<path class="st4" d="M165.9,35.6c0.5,0.6,0.8,1.4,0.8,2.5v4.5h-2.4v-4.3c0-0.5-0.1-0.9-0.4-1.2s-0.6-0.4-1.1-0.4s-0.9,0.2-1.2,0.5
		s-0.4,0.7-0.4,1.3v4.1h-2.4V32.3h2.4v4c0.2-0.5,0.6-0.8,1-1.1s1-0.4,1.6-0.4C164.6,34.7,165.3,35,165.9,35.6z"/>
	<path class="st4" d="M175.6,39.1h-5.4c0,0.6,0.2,1,0.4,1.3c0.3,0.3,0.6,0.4,1,0.4s0.6-0.1,0.9-0.3c0.2-0.2,0.4-0.4,0.5-0.7h2.5
		c-0.1,0.6-0.3,1-0.7,1.5c-0.3,0.4-0.8,0.8-1.3,1s-1.1,0.4-1.8,0.4c-0.8,0-1.4-0.2-2-0.5s-1.1-0.8-1.4-1.4c-0.3-0.6-0.5-1.3-0.5-2.1
		s0.2-1.5,0.5-2.1s0.8-1.1,1.4-1.4c0.6-0.3,1.3-0.5,2-0.5c0.8,0,1.5,0.2,2,0.5c0.6,0.3,1,0.8,1.4,1.3c0.3,0.6,0.5,1.2,0.5,2
		C175.6,38.7,175.6,38.9,175.6,39.1z M172.8,37c-0.3-0.3-0.6-0.4-1.1-0.4c-0.4,0-0.8,0.1-1.1,0.4c-0.3,0.3-0.5,0.6-0.5,1.1h3.1
		C173.2,37.6,173.1,37.2,172.8,37z"/>
	<path class="st4" d="M182.1,39.1v3.5h-2.4v-9.9h3.9c1.2,0,2.1,0.3,2.7,0.9c0.6,0.6,0.9,1.4,0.9,2.4c0,0.6-0.1,1.2-0.4,1.6
		c-0.3,0.5-0.7,0.9-1.2,1.1c-0.5,0.3-1.2,0.4-2,0.4H182.1z M184.7,35.9c0-0.9-0.5-1.3-1.4-1.3h-1.2v2.6h1.2
		C184.3,37.2,184.7,36.8,184.7,35.9z"/>
	<path class="st4" d="M194.1,35.2c0.6,0.3,1.1,0.8,1.4,1.4c0.3,0.6,0.5,1.3,0.5,2.1s-0.2,1.5-0.5,2.1s-0.8,1.1-1.4,1.4
		s-1.3,0.5-2.1,0.5s-1.5-0.2-2.1-0.5s-1.1-0.8-1.4-1.4c-0.4-0.6-0.5-1.3-0.5-2.1s0.2-1.5,0.5-2.1s0.8-1.1,1.4-1.4
		c0.6-0.3,1.3-0.5,2.1-0.5S193.5,34.9,194.1,35.2z M190.9,37.3c-0.3,0.3-0.5,0.8-0.5,1.4c0,0.6,0.2,1.1,0.5,1.4
		c0.3,0.3,0.7,0.5,1.2,0.5s0.8-0.2,1.1-0.5s0.5-0.8,0.5-1.4c0-0.6-0.2-1.1-0.5-1.4c-0.3-0.3-0.7-0.5-1.1-0.5
		C191.6,36.8,191.2,36.9,190.9,37.3z"/>
	<path class="st4" d="M202.5,35.4c0.6,0.5,1,1.1,1.1,2h-2.2c-0.1-0.3-0.2-0.6-0.4-0.7s-0.5-0.3-0.9-0.3c-0.3,0-0.5,0.1-0.6,0.2
		c-0.1,0.1-0.2,0.3-0.2,0.5s0.1,0.4,0.4,0.5c0.3,0.1,0.7,0.2,1.2,0.4c0.6,0.1,1.1,0.3,1.5,0.4s0.7,0.4,1,0.7s0.4,0.8,0.4,1.3
		c0,0.4-0.1,0.8-0.4,1.2c-0.2,0.3-0.6,0.6-1.1,0.8s-1,0.3-1.6,0.3c-1.1,0-1.9-0.2-2.5-0.7s-1-1.1-1.2-2h2.3c0,0.3,0.2,0.6,0.4,0.8
		s0.6,0.3,1,0.3c0.3,0,0.5-0.1,0.6-0.2c0.1-0.1,0.2-0.3,0.2-0.5c0-0.3-0.1-0.5-0.4-0.6c-0.3-0.1-0.7-0.2-1.3-0.4
		c-0.6-0.1-1.1-0.3-1.4-0.4c-0.4-0.1-0.7-0.4-1-0.7S197,37.6,197,37c0-0.7,0.3-1.3,0.8-1.7s1.3-0.7,2.3-0.7
		C201.1,34.7,201.9,34.9,202.5,35.4z"/>
	<path class="st4" d="M209.5,40.6v2.1h-1.1c-0.9,0-1.6-0.2-2.1-0.7s-0.8-1.2-0.8-2.2v-2.9h-1.1v-2h1.1V33h2.4v1.9h1.6v2h-1.6v2.9
		c0,0.3,0.1,0.5,0.2,0.6c0.1,0.1,0.3,0.2,0.6,0.2C208.7,40.6,209.5,40.6,209.5,40.6z"/>
	<path class="st4" d="M212.9,44.4h-2.4V31.2h2.4V44.4z"/>
	<path class="st4" d="M216.7,39.1v3.5h-2.4v-9.9h3.9c1.2,0,2.1,0.3,2.7,0.9c0.6,0.6,0.9,1.4,0.9,2.4c0,0.6-0.1,1.2-0.4,1.6
		c-0.3,0.5-0.7,0.9-1.2,1.1s-1.2,0.4-2,0.4H216.7z M219.3,35.9c0-0.9-0.5-1.3-1.4-1.3h-1.2v2.6h1.2
		C218.8,37.2,219.3,36.8,219.3,35.9z"/>
	<path class="st4" d="M226.5,35.1c0.5-0.3,1-0.4,1.5-0.4v2.6h-0.7c-0.6,0-1.1,0.1-1.5,0.4c-0.4,0.3-0.5,0.7-0.5,1.4v3.6h-2.4v-7.8
		h2.4v1.5C225.6,35.8,226,35.4,226.5,35.1z"/>
	<path class="st4" d="M234.7,35.2c0.6,0.3,1.1,0.8,1.4,1.4c0.3,0.6,0.5,1.3,0.5,2.1s-0.2,1.5-0.5,2.1s-0.8,1.1-1.4,1.4
		s-1.3,0.5-2.1,0.5s-1.5-0.2-2.1-0.5s-1.1-0.8-1.4-1.4c-0.4-0.6-0.5-1.3-0.5-2.1s0.2-1.5,0.5-2.1s0.8-1.1,1.4-1.4
		c0.6-0.3,1.3-0.5,2.1-0.5S234.1,34.9,234.7,35.2z M231.5,37.3c-0.3,0.3-0.5,0.8-0.5,1.4c0,0.6,0.2,1.1,0.5,1.4
		c0.3,0.3,0.7,0.5,1.2,0.5s0.8-0.2,1.1-0.5s0.5-0.8,0.5-1.4c0-0.6-0.2-1.1-0.5-1.4c-0.3-0.3-0.7-0.5-1.1-0.5
		C232.2,36.8,231.8,36.9,231.5,37.3z"/>
	<path class="st4" d="M242.5,35.1c0.4,0.3,0.7,0.6,0.9,1.1v-4h2.4v10.4h-2.4v-1.4c-0.2,0.5-0.5,0.8-0.9,1.1s-0.9,0.4-1.5,0.4
		s-1.2-0.2-1.7-0.5s-0.9-0.8-1.2-1.4c-0.3-0.6-0.4-1.3-0.4-2.1s0.1-1.5,0.4-2.1s0.7-1.1,1.2-1.4c0.5-0.3,1.1-0.5,1.7-0.5
		C241.5,34.7,242,34.8,242.5,35.1z M240.5,37.3c-0.3,0.3-0.5,0.8-0.5,1.4c0,0.6,0.2,1.1,0.5,1.4c0.3,0.3,0.7,0.5,1.2,0.5
		s0.9-0.2,1.2-0.5s0.5-0.8,0.5-1.4c0-0.6-0.2-1.1-0.5-1.4c-0.3-0.3-0.7-0.5-1.2-0.5S240.8,37,240.5,37.3z"/>
	<path class="st4" d="M255.2,34.8v7.8h-2.4v-1.4c-0.2,0.5-0.6,0.8-1,1.1s-1,0.4-1.5,0.4c-0.9,0-1.6-0.3-2.1-0.9s-0.8-1.4-0.8-2.5
		v-4.5h2.4V39c0,0.5,0.1,0.9,0.4,1.2s0.6,0.4,1.1,0.4s0.9-0.2,1.1-0.5c0.3-0.3,0.4-0.7,0.4-1.3v-4.1L255.2,34.8L255.2,34.8z"/>
	<path class="st4" d="M262.9,35.5c0.7,0.6,1.1,1.3,1.3,2.3h-2.5c-0.1-0.3-0.2-0.6-0.5-0.8c-0.2-0.2-0.5-0.3-0.9-0.3s-0.8,0.2-1,0.5
		c-0.3,0.3-0.4,0.8-0.4,1.4s0.1,1.1,0.4,1.4c0.3,0.3,0.6,0.5,1,0.5s0.6-0.1,0.9-0.3c0.2-0.2,0.4-0.4,0.5-0.8h2.5
		c-0.2,1-0.6,1.7-1.3,2.3c-0.7,0.6-1.5,0.8-2.5,0.8c-0.8,0-1.4-0.2-2-0.5s-1.1-0.8-1.4-1.4c-0.3-0.6-0.5-1.3-0.5-2.1
		s0.2-1.5,0.5-2.1s0.8-1.1,1.4-1.4c0.6-0.3,1.3-0.5,2-0.5C261.4,34.7,262.3,35,262.9,35.5z"/>
	<path class="st4" d="M269.9,40.6v2.1h-1.1c-0.9,0-1.6-0.2-2.1-0.7s-0.8-1.2-0.8-2.2v-2.9h-1.1v-2h1.1V33h2.4v1.9h1.6v2h-1.6v2.9
		c0,0.3,0.1,0.5,0.2,0.6s0.3,0.2,0.6,0.2C269.1,40.6,269.9,40.6,269.9,40.6z"/>
	<path class="st4" d="M271.4,31.7c0.3-0.2,0.6-0.4,1-0.4s0.8,0.1,1,0.4c0.3,0.2,0.4,0.5,0.4,0.9s-0.1,0.7-0.4,0.9s-0.6,0.4-1,0.4
		s-0.8-0.1-1-0.4c-0.3-0.2-0.4-0.5-0.4-0.9S271.1,31.9,271.4,31.7z M273.6,34.8v7.8h-2.4v-7.8H273.6z"/>
	<path class="st4" d="M281,35.2c0.6,0.3,1.1,0.8,1.4,1.4c0.3,0.6,0.5,1.3,0.5,2.1s-0.2,1.5-0.5,2.1s-0.8,1.1-1.4,1.4
		s-1.3,0.5-2.1,0.5c-0.8,0-1.5-0.2-2.1-0.5s-1.1-0.8-1.4-1.4c-0.4-0.6-0.5-1.3-0.5-2.1s0.2-1.5,0.5-2.1s0.8-1.1,1.4-1.4
		c0.6-0.3,1.3-0.5,2.1-0.5S280.4,34.9,281,35.2z M277.8,37.3c-0.3,0.3-0.5,0.8-0.5,1.4c0,0.6,0.2,1.1,0.5,1.4
		c0.3,0.3,0.7,0.5,1.2,0.5s0.8-0.2,1.1-0.5c0.3-0.3,0.5-0.8,0.5-1.4c0-0.6-0.2-1.1-0.5-1.4c-0.3-0.3-0.7-0.5-1.1-0.5
		C278.5,36.8,278.1,36.9,277.8,37.3z"/>
	<path class="st4" d="M291.3,35.6c0.5,0.6,0.8,1.4,0.8,2.5v4.5h-2.4v-4.3c0-0.5-0.1-0.9-0.4-1.2s-0.6-0.4-1.1-0.4s-0.9,0.2-1.2,0.5
		c-0.3,0.3-0.4,0.7-0.4,1.3v4.1h-2.4v-7.8h2.4v1.4c0.2-0.5,0.6-0.8,1-1.1s1-0.4,1.6-0.4C290.1,34.7,290.8,35,291.3,35.6z"/>
	<path class="st4" d="M309.9,32.7l-2.4,9.9h-3L303,36l-1.6,6.6h-3l-2.4-9.9h2.6l1.3,7.2l1.7-7.2h2.6l1.7,7.2l1.3-7.2
		C307.2,32.7,309.9,32.7,309.9,32.7z"/>
	<path class="st4" d="M316.9,35.2c0.6,0.3,1.1,0.8,1.4,1.4c0.3,0.6,0.5,1.3,0.5,2.1s-0.2,1.5-0.5,2.1s-0.8,1.1-1.4,1.4
		s-1.3,0.5-2.1,0.5c-0.8,0-1.5-0.2-2.1-0.5s-1.1-0.8-1.4-1.4c-0.4-0.6-0.5-1.3-0.5-2.1s0.2-1.5,0.5-2.1s0.8-1.1,1.4-1.4
		c0.6-0.3,1.3-0.5,2.1-0.5S316.3,34.9,316.9,35.2z M313.7,37.3c-0.3,0.3-0.5,0.8-0.5,1.4c0,0.6,0.2,1.1,0.5,1.4
		c0.3,0.3,0.7,0.5,1.2,0.5s0.8-0.2,1.1-0.5c0.3-0.3,0.5-0.8,0.5-1.4c0-0.6-0.2-1.1-0.5-1.4c-0.3-0.3-0.7-0.5-1.1-0.5
		C314.4,36.8,314,36.9,313.7,37.3z"/>
	<path class="st4" d="M323.7,35.1c0.5-0.3,1-0.4,1.5-0.4v2.6h-0.7c-0.6,0-1.1,0.1-1.5,0.4c-0.4,0.3-0.5,0.7-0.5,1.4v3.6h-2.4v-7.8
		h2.4v1.5C322.8,35.8,323.2,35.4,323.7,35.1z"/>
	<path class="st4" d="M328.6,32.3v10.4h-2.4V32.3H328.6z"/>
	<path class="st4" d="M334.8,35.1c0.4,0.3,0.7,0.6,0.9,1.1v-4h2.4v10.4h-2.4v-1.4c-0.2,0.5-0.5,0.8-0.9,1.1s-0.9,0.4-1.5,0.4
		s-1.2-0.2-1.7-0.5s-0.9-0.8-1.2-1.4c-0.3-0.6-0.4-1.3-0.4-2.1s0.1-1.5,0.4-2.1s0.7-1.1,1.2-1.4c0.5-0.3,1.1-0.5,1.7-0.5
		C333.9,34.7,334.4,34.8,334.8,35.1z M332.8,37.3c-0.3,0.3-0.5,0.8-0.5,1.4c0,0.6,0.2,1.1,0.5,1.4c0.3,0.3,0.7,0.5,1.2,0.5
		s0.9-0.2,1.2-0.5c0.3-0.3,0.5-0.8,0.5-1.4c0-0.6-0.2-1.1-0.5-1.4c-0.3-0.3-0.7-0.5-1.2-0.5S333.1,37,332.8,37.3z"/>
	<path class="st4" d="M350.2,33.6c0.8,0.7,1.4,1.6,1.6,2.7h-2.5c-0.2-0.5-0.5-0.8-0.9-1.1s-0.8-0.4-1.4-0.4c-0.7,0-1.3,0.3-1.7,0.8
		c-0.4,0.5-0.6,1.2-0.6,2.1c0,0.9,0.2,1.5,0.6,2.1c0.4,0.5,1,0.8,1.7,0.8c0.5,0,1-0.1,1.4-0.4c0.4-0.3,0.7-0.6,0.9-1.1h2.5
		c-0.2,1.1-0.8,2-1.6,2.7c-0.8,0.7-1.9,1-3.1,1c-1,0-1.8-0.2-2.5-0.6c-0.7-0.4-1.3-1-1.7-1.8c-0.4-0.8-0.6-1.6-0.6-2.6
		s0.2-1.9,0.6-2.6c0.4-0.8,1-1.4,1.7-1.8c0.7-0.4,1.6-0.6,2.5-0.6C348.4,32.6,349.4,32.9,350.2,33.6z"/>
	<path class="st4" d="M358.9,35.2c0.6,0.3,1.1,0.8,1.4,1.4c0.3,0.6,0.5,1.3,0.5,2.1s-0.2,1.5-0.5,2.1s-0.8,1.1-1.4,1.4
		s-1.3,0.5-2.1,0.5c-0.8,0-1.5-0.2-2.1-0.5s-1.1-0.8-1.4-1.4c-0.4-0.6-0.5-1.3-0.5-2.1s0.2-1.5,0.5-2.1s0.8-1.1,1.4-1.4
		c0.6-0.3,1.3-0.5,2.1-0.5S358.3,34.9,358.9,35.2z M355.7,37.3c-0.3,0.3-0.5,0.8-0.5,1.4c0,0.6,0.2,1.1,0.5,1.4
		c0.3,0.3,0.7,0.5,1.2,0.5s0.8-0.2,1.1-0.5c0.3-0.3,0.5-0.8,0.5-1.4c0-0.6-0.2-1.1-0.5-1.4c-0.3-0.3-0.7-0.5-1.1-0.5
		C356.4,36.8,356,36.9,355.7,37.3z"/>
	<path class="st4" d="M374.5,35.6c0.6,0.6,0.8,1.4,0.8,2.5v4.5H373v-4.3c0-0.5-0.1-0.9-0.4-1.2s-0.6-0.4-1.1-0.4s-0.9,0.1-1.1,0.4
		s-0.4,0.7-0.4,1.2v4.1h-2.4v-4.3c0-0.5-0.1-0.9-0.4-1.2s-0.6-0.4-1.1-0.4s-0.9,0.1-1.1,0.4c-0.3,0.3-0.4,0.7-0.4,1.2v4.1h-2.4v-7.8
		h2.4v1.3c0.2-0.4,0.5-0.8,0.9-1s0.9-0.4,1.5-0.4s1.1,0.1,1.6,0.4c0.5,0.3,0.8,0.7,1,1.2c0.3-0.5,0.6-0.9,1.1-1.2s1-0.4,1.6-0.4
		C373.2,34.7,374,35,374.5,35.6z"/>
	<path class="st4" d="M389.3,35.6c0.6,0.6,0.8,1.4,0.8,2.5v4.5h-2.4v-4.3c0-0.5-0.1-0.9-0.4-1.2s-0.6-0.4-1.1-0.4s-0.9,0.1-1.1,0.4
		s-0.4,0.7-0.4,1.2v4.1h-2.4v-4.3c0-0.5-0.1-0.9-0.4-1.2s-0.6-0.4-1.1-0.4s-0.9,0.1-1.1,0.4c-0.3,0.3-0.4,0.7-0.4,1.2v4.1h-2.4v-7.8
		h2.4v1.3c0.2-0.4,0.5-0.8,0.9-1s0.9-0.4,1.5-0.4s1.1,0.1,1.6,0.4c0.5,0.3,0.8,0.7,1,1.2c0.3-0.5,0.6-0.9,1.1-1.2s1-0.4,1.6-0.4
		C388,34.7,388.8,35,389.3,35.6z"/>
	<path class="st4" d="M399.5,34.8v7.8h-2.4v-1.4c-0.2,0.5-0.6,0.8-1,1.1s-1,0.4-1.5,0.4c-0.9,0-1.6-0.3-2.1-0.9s-0.8-1.4-0.8-2.5
		v-4.5h2.4V39c0,0.5,0.1,0.9,0.4,1.2s0.6,0.4,1.1,0.4s0.9-0.2,1.1-0.5c0.3-0.3,0.4-0.7,0.4-1.3v-4.1L399.5,34.8L399.5,34.8z"/>
	<path class="st4" d="M408.3,35.6c0.5,0.6,0.8,1.4,0.8,2.5v4.5h-2.4v-4.3c0-0.5-0.1-0.9-0.4-1.2s-0.6-0.4-1.1-0.4s-0.9,0.2-1.2,0.5
		c-0.3,0.3-0.4,0.7-0.4,1.3v4.1h-2.4v-7.8h2.4v1.4c0.2-0.5,0.6-0.8,1-1.1s1-0.4,1.6-0.4C407,34.7,407.7,35,408.3,35.6z"/>
	<path class="st4" d="M410.8,31.7c0.3-0.2,0.6-0.4,1-0.4s0.8,0.1,1,0.4c0.3,0.2,0.4,0.5,0.4,0.9s-0.1,0.7-0.4,0.9s-0.6,0.4-1,0.4
		s-0.8-0.1-1-0.4c-0.3-0.2-0.4-0.5-0.4-0.9S410.5,31.9,410.8,31.7z M413,34.8v7.8h-2.4v-7.8H413z"/>
	<path class="st4" d="M419.1,40.6v2.1H418c-0.9,0-1.6-0.2-2.1-0.7s-0.8-1.2-0.8-2.2v-2.9H414v-2h1.1V33h2.4v1.9h1.6v2h-1.6v2.9
		c0,0.3,0.1,0.5,0.2,0.6s0.3,0.2,0.6,0.2C418.3,40.6,419.1,40.6,419.1,40.6z"/>
	<path class="st4" d="M422.3,34.8l1.9,4.8l1.8-4.8h2.6l-4.9,11.5H421l1.8-4l-3.3-7.5H422.3z"/>
	<path class="st4" d="M438.6,32.7v1.9h-4.1v2.2h3.1v1.8h-3.1v4h-2.4v-9.9C432.1,32.7,438.6,32.7,438.6,32.7z"/>
	<path class="st4" d="M444.3,35.1c0.4,0.3,0.7,0.6,1,1.1v-1.4h2.4v7.8h-2.4v-1.4c-0.2,0.5-0.5,0.8-1,1.1s-0.9,0.4-1.5,0.4
		s-1.2-0.2-1.7-0.5s-0.9-0.8-1.2-1.4c-0.3-0.6-0.4-1.3-0.4-2.1s0.1-1.5,0.4-2.1s0.7-1.1,1.2-1.4c0.5-0.3,1.1-0.5,1.7-0.5
		C443.4,34.7,443.9,34.8,444.3,35.1z M442.3,37.3c-0.3,0.3-0.5,0.8-0.5,1.4c0,0.6,0.2,1.1,0.5,1.4c0.3,0.3,0.7,0.5,1.2,0.5
		s0.9-0.2,1.2-0.5c0.3-0.3,0.5-0.8,0.5-1.4c0-0.6-0.2-1.1-0.5-1.4c-0.3-0.3-0.7-0.5-1.2-0.5S442.6,37,442.3,37.3z"/>
	<path class="st4" d="M455.4,35.5c0.7,0.6,1.1,1.3,1.3,2.3h-2.5c-0.1-0.3-0.2-0.6-0.5-0.8c-0.2-0.2-0.5-0.3-0.9-0.3s-0.8,0.2-1,0.5
		c-0.3,0.3-0.4,0.8-0.4,1.4s0.1,1.1,0.4,1.4c0.3,0.3,0.6,0.5,1,0.5s0.6-0.1,0.9-0.3c0.2-0.2,0.4-0.4,0.5-0.8h2.5
		c-0.2,1-0.6,1.7-1.3,2.3c-0.7,0.6-1.5,0.8-2.5,0.8c-0.8,0-1.4-0.2-2-0.5s-1.1-0.8-1.4-1.4c-0.3-0.6-0.5-1.3-0.5-2.1
		s0.2-1.5,0.5-2.1s0.8-1.1,1.4-1.4c0.6-0.3,1.3-0.5,2-0.5C453.8,34.7,454.7,35,455.4,35.5z"/>
	<path class="st4" d="M465.2,39.1h-5.4c0,0.6,0.2,1,0.4,1.3c0.3,0.3,0.6,0.4,1,0.4s0.6-0.1,0.9-0.3c0.2-0.2,0.4-0.4,0.5-0.7h2.5
		c-0.1,0.6-0.3,1-0.7,1.5c-0.3,0.4-0.8,0.8-1.3,1s-1.1,0.4-1.8,0.4c-0.8,0-1.4-0.2-2-0.5s-1.1-0.8-1.4-1.4c-0.3-0.6-0.5-1.3-0.5-2.1
		s0.2-1.5,0.5-2.1s0.8-1.1,1.4-1.4c0.6-0.3,1.3-0.5,2-0.5c0.8,0,1.5,0.2,2,0.5c0.6,0.3,1,0.8,1.4,1.3c0.3,0.6,0.5,1.2,0.5,2
		C465.3,38.7,465.3,38.9,465.2,39.1z M462.5,37c-0.3-0.3-0.6-0.4-1.1-0.4c-0.4,0-0.8,0.1-1.1,0.4s-0.5,0.6-0.5,1.1h3.1
		C462.9,37.6,462.8,37.2,462.5,37z"/>
	<path class="st4" d="M473.2,35.2c0.5,0.3,0.9,0.8,1.2,1.4s0.4,1.3,0.4,2.1s-0.1,1.5-0.4,2.1s-0.7,1.1-1.2,1.4s-1.1,0.5-1.7,0.5
		s-1.1-0.1-1.5-0.4c-0.4-0.3-0.7-0.6-0.9-1.1v1.4h-2.4V32.3h2.4v4c0.2-0.5,0.5-0.8,0.9-1.1s0.9-0.4,1.5-0.4
		C472.1,34.7,472.7,34.9,473.2,35.2z M469.4,37.3c-0.3,0.3-0.5,0.8-0.5,1.4c0,0.6,0.2,1,0.5,1.4c0.3,0.3,0.7,0.5,1.2,0.5
		s0.9-0.2,1.2-0.5s0.5-0.8,0.5-1.4c0-0.6-0.2-1.1-0.5-1.4s-0.7-0.5-1.2-0.5C470.2,36.8,469.7,37,469.4,37.3z"/>
	<path class="st4" d="M481.8,35.2c0.6,0.3,1.1,0.8,1.4,1.4c0.3,0.6,0.5,1.3,0.5,2.1s-0.2,1.5-0.5,2.1s-0.8,1.1-1.4,1.4
		s-1.3,0.5-2.1,0.5c-0.8,0-1.5-0.2-2.1-0.5s-1.1-0.8-1.4-1.4c-0.4-0.6-0.5-1.3-0.5-2.1s0.2-1.5,0.5-2.1s0.8-1.1,1.4-1.4
		c0.6-0.3,1.3-0.5,2.1-0.5S481.2,34.9,481.8,35.2z M478.6,37.3c-0.3,0.3-0.5,0.8-0.5,1.4c0,0.6,0.2,1.1,0.5,1.4
		c0.3,0.3,0.7,0.5,1.2,0.5s0.8-0.2,1.1-0.5c0.3-0.3,0.5-0.8,0.5-1.4c0-0.6-0.2-1.1-0.5-1.4c-0.3-0.3-0.7-0.5-1.1-0.5
		C479.3,36.8,478.9,36.9,478.6,37.3z"/>
	<path class="st4" d="M490.7,35.2c0.6,0.3,1.1,0.8,1.4,1.4c0.3,0.6,0.5,1.3,0.5,2.1s-0.2,1.5-0.5,2.1s-0.8,1.1-1.4,1.4
		s-1.3,0.5-2.1,0.5c-0.8,0-1.5-0.2-2.1-0.5s-1.1-0.8-1.4-1.4c-0.4-0.6-0.5-1.3-0.5-2.1s0.2-1.5,0.5-2.1s0.8-1.1,1.4-1.4
		c0.6-0.3,1.3-0.5,2.1-0.5C489.4,34.7,490.1,34.9,490.7,35.2z M487.5,37.3c-0.3,0.3-0.5,0.8-0.5,1.4c0,0.6,0.2,1.1,0.5,1.4
		c0.3,0.3,0.7,0.5,1.2,0.5s0.8-0.2,1.1-0.5c0.3-0.3,0.5-0.8,0.5-1.4c0-0.6-0.2-1.1-0.5-1.4c-0.3-0.3-0.7-0.5-1.1-0.5
		C488.2,36.8,487.8,36.9,487.5,37.3z"/>
	<path class="st4" d="M498.7,42.6l-2.3-3.3v3.3H494V32.3h2.4V38l2.3-3.1h2.8l-3.2,3.9l3.2,3.9h-2.8V42.6z"/>
	<path class="st4" d="M512.9,33.5c0.8,0.6,1.3,1.4,1.5,2.5h-2.5c-0.2-0.4-0.4-0.6-0.8-0.8c-0.3-0.2-0.8-0.3-1.2-0.3
		c-0.8,0-1.4,0.3-1.8,0.8c-0.5,0.5-0.7,1.2-0.7,2.1c0,0.9,0.2,1.7,0.7,2.2s1.2,0.8,2.1,0.8c0.6,0,1.1-0.2,1.5-0.5s0.7-0.8,0.9-1.3
		h-3v-1.7h5v2.4c-0.2,0.6-0.5,1.1-0.9,1.6s-0.9,0.9-1.6,1.2c-0.6,0.3-1.4,0.5-2.2,0.5c-1,0-1.9-0.2-2.6-0.6c-0.7-0.4-1.3-1-1.7-1.8
		c-0.4-0.8-0.6-1.6-0.6-2.6s0.2-1.9,0.6-2.6c0.4-0.8,1-1.4,1.7-1.8s1.6-0.6,2.6-0.6C511.1,32.6,512.1,32.9,512.9,33.5z"/>
	<path class="st4" d="M519.4,35.1c0.5-0.3,1-0.4,1.5-0.4v2.6h-0.7c-0.6,0-1.1,0.1-1.5,0.4c-0.4,0.3-0.5,0.7-0.5,1.4v3.6h-2.4v-7.8
		h2.4v1.5C518.6,35.8,519,35.4,519.4,35.1z"/>
	<path class="st4" d="M527.7,35.2c0.6,0.3,1.1,0.8,1.4,1.4c0.3,0.6,0.5,1.3,0.5,2.1s-0.2,1.5-0.5,2.1s-0.8,1.1-1.4,1.4
		s-1.3,0.5-2.1,0.5s-1.5-0.2-2.1-0.5s-1.1-0.8-1.4-1.4c-0.4-0.6-0.5-1.3-0.5-2.1s0.2-1.5,0.5-2.1s0.8-1.1,1.4-1.4
		c0.6-0.3,1.3-0.5,2.1-0.5S527.1,34.9,527.7,35.2z M524.5,37.3c-0.3,0.3-0.5,0.8-0.5,1.4c0,0.6,0.2,1.1,0.5,1.4
		c0.3,0.3,0.7,0.5,1.2,0.5s0.8-0.2,1.1-0.5s0.5-0.8,0.5-1.4c0-0.6-0.2-1.1-0.5-1.4c-0.3-0.3-0.7-0.5-1.1-0.5
		C525.2,36.8,524.8,36.9,524.5,37.3z"/>
	<path class="st4" d="M538.7,34.8v7.8h-2.4v-1.4c-0.2,0.5-0.6,0.8-1,1.1s-1,0.4-1.5,0.4c-0.9,0-1.6-0.3-2.1-0.9s-0.8-1.4-0.8-2.5
		v-4.5h2.4V39c0,0.5,0.1,0.9,0.4,1.2s0.6,0.4,1.1,0.4s0.9-0.2,1.1-0.5c0.3-0.3,0.4-0.7,0.4-1.3v-4.1L538.7,34.8L538.7,34.8z"/>
	<path class="st4" d="M547,35.2c0.5,0.3,0.9,0.8,1.2,1.4s0.4,1.3,0.4,2.1s-0.1,1.5-0.4,2.1c-0.3,0.6-0.7,1.1-1.2,1.4
		s-1.1,0.5-1.7,0.5c-0.6,0-1.1-0.1-1.5-0.4c-0.4-0.3-0.7-0.6-0.9-1.1v5.1h-2.4V34.8h2.4v1.4c0.2-0.5,0.5-0.8,0.9-1.1
		s0.9-0.4,1.5-0.4C545.9,34.7,546.4,34.9,547,35.2z M543.2,37.3c-0.3,0.3-0.5,0.8-0.5,1.4c0,0.6,0.2,1,0.5,1.4
		c0.3,0.3,0.7,0.5,1.2,0.5s0.9-0.2,1.2-0.5s0.5-0.8,0.5-1.4c0-0.6-0.2-1.1-0.5-1.4s-0.7-0.5-1.2-0.5C544,36.8,543.5,37,543.2,37.3z"
		/>
</g>
<path class="st5" d="M568.3,65H30.4c-6.6,0-12-5.4-12-12V22.3c0-6.6,5.4-12,12-12h537.9c6.6,0,12,5.4,12,12V53
	C580.3,59.6,574.9,65,568.3,65z"/>
<path class="st6" d="M11.1,59.8l1.6-1.4l4.3-8.6v-5.6l2-0.1c0,0,4,1.7,3.1,7.3c-0.1,1.8-0.4,3.3-0.4,3.3s6.1,0.1,8.6,0.3
	c2.5,0.1,3.2,3.8,1.6,4.6c1.7,1.1,1.5,4.7-0.7,5c0.9,1.5,0.9,4-1.6,4.5c0.5,1.4-0.1,4.2-2.7,4.2s-11.4,0-12.2,0s-3.6-1.8-3.6-1.8
	V59.8z"/>
<g>
	<g>
		<path class="st7" d="M1.6,57.8L1.6,57.8V74l0,0h9.3l0,0V57.9l0,0H1.6V57.8z"/>
	</g>
	<path class="st4" d="M33.7,62.1c0-0.9-0.4-1.8-1-2.5c0.5-0.6,0.7-1.3,0.7-2.1c0-0.9-0.4-1.7-1-2.4c-0.7-0.7-1.6-1.1-2.6-1.1h-7.4
		l0.5-3.1c0.1-0.4,0.1-0.8,0.1-1.2c0-3.1-2.1-6.6-4.7-6.6c-0.8,0-1.5,0.3-2.1,0.8l-0.3,0.2l0.4,5.1c0,0.2,0,0.4-0.1,0.6
		c-0.1,0.2-0.1,0.4-0.2,0.6L11.8,58l-0.2,0.1c-0.1-0.7-0.7-1.2-1.4-1.2H2.3c-0.8,0-1.4,0.6-1.4,1.4v15c0,0.8,0.6,1.4,1.4,1.4h7.9
		c0.8,0,1.4-0.6,1.4-1.4v-0.8l0,0c1.5,1.2,3.3,1.3,3.4,1.3l0,0h11.9l0,0c1.8-0.1,3.3-1.6,3.3-3.4c0-0.3,0-0.5-0.1-0.8
		c1.2-0.5,2.1-1.8,2.1-3.2c0-0.5-0.1-0.9-0.3-1.3C33.1,64.4,33.7,63.3,33.7,62.1z M10.3,73.3C10.3,73.3,10.3,73.4,10.3,73.3h-8l0,0
		v-15l0,0h7.9l0,0v1v12.5L10.3,73.3L10.3,73.3z M30.9,64.1L30,64.4l0.6,0.8c0.3,0.4,0.4,0.8,0.4,1.2c0,1-0.7,1.9-1.7,2l-0.9,0.2
		l0.4,0.9c0.2,0.3,0.2,0.6,0.2,0.9c0,1.1-0.8,2-1.9,2.1H15.2c0,0-1.5,0-2.5-0.9c-0.2-0.2-0.4-0.3-0.7-0.4L11.7,71V60l1.2-1.1
		l4.2-7.8c0.2-0.3,0.3-0.6,0.4-1c0.1-0.3,0.1-0.7,0.1-1.1l-0.3-4.4c0.3-0.2,0.6-0.3,1-0.3c1.8,0,3.4,2.9,3.4,5.3c0,0.3,0,0.7-0.1,1
		l-0.7,4.7H30c0.6,0,1.2,0.2,1.6,0.7c0.4,0.4,0.6,0.9,0.6,1.4c0,0.6-0.3,1.2-0.8,1.6l-0.8,0.6l0.9,0.5c0.6,0.4,1,1.1,1,1.8
		C32.3,63,31.7,63.8,30.9,64.1z"/>
</g>
<ellipse id="XMLID_2_" class="st8" cx="120.1" cy="12.2" rx="11.6" ry="11.6"/>
<path id="XMLID_1_" class="st0" d="M118.3,15.7c0-1.1,0-2.2,0-3.3c0-0.2-0.1-0.2-0.2-0.2c-0.3,0-0.7,0-1,0c-0.1,0-0.2,0-0.2-0.2
	c0-0.7,0-1.4,0-2c0-0.1,0-0.2,0.2-0.2c0.3,0,0.7,0,1,0c0.2,0,0.2-0.1,0.2-0.2c0-0.5,0-1,0-1.5c0-0.6,0.2-1.2,0.6-1.7
	c0.5-0.6,1.1-0.9,1.9-1c0.8,0,1.6,0,2.4,0c0.1,0,0.1,0,0.1,0.1c0,0.7,0,1.4,0,2.1c0,0.1,0,0.2-0.2,0.2c-0.4,0-0.8,0-1.2,0
	c-0.5,0-0.8,0.3-0.9,0.8c0,0.4,0,0.8,0,1.2c0,0.1,0.1,0.1,0.2,0.1c0.6,0,1.2,0,1.8,0c0.2,0,0.2,0,0.2,0.2c-0.1,0.7-0.1,1.4-0.2,2
	c0,0.2-0.1,0.2-0.2,0.2c-0.5,0-0.9,0-1.4,0c-0.3,0-0.3,0-0.3,0.3c0,2.1,0,4.2,0,6.4c0,0.2-0.1,0.3-0.3,0.3c-0.8,0-1.6,0-2.4,0
	c-0.2,0-0.3-0.1-0.3-0.3C118.3,17.9,118.3,16.8,118.3,15.7z"/>
</svg>
